<svg version="1.1" id="Layer_1" xmlns="http://www.w3.org/2000/svg" xmlns:xlink="http://www.w3.org/1999/xlink" x="0px" y="0px"
	 width="100%" viewBox="0 0 600 450" enable-background="new 0 0 600 450" xml:space="preserve">
<path fill="#14E956" opacity="1.000000" stroke="none" 
	d="
M1.000000,151.000000 
	C1.000000,101.048653 1.000000,51.097298 1.000000,1.000000 
	C100.687515,1.000000 200.375092,1.000000 300.398071,1.306385 
	C251.376373,51.051159 202.019287,100.489548 151.554550,151.037415 
	C202.489319,151.037415 251.757202,151.037415 301.012543,151.018707 
	C301.000000,151.000000 300.974915,150.962585 300.854584,151.275726 
	C299.232849,153.149094 297.757019,154.734863 296.226349,156.265839 
	C249.687973,202.813995 203.143112,249.355667 156.606873,295.905975 
	C155.266342,297.246887 154.008331,298.670319 151.792435,301.037415 
	C202.487259,301.037415 251.756165,301.037415 301.012543,301.018707 
	C301.000000,301.000000 300.974915,300.962616 300.854553,301.275726 
	C299.233887,303.148010 297.759125,304.732758 296.229523,306.262634 
	C249.592087,352.909302 202.946884,399.548126 156.317810,446.203094 
	C154.799103,447.722687 153.435776,449.397552 152.000000,451.000000 
	C101.739677,451.000000 51.479347,451.000000 1.000000,451.000000 
	C1.000000,400.979309 1.000000,350.958313 1.306386,300.335388 
	C50.384445,251.011185 99.157242,202.290024 147.912598,153.551422 
	C148.425247,153.038956 148.708755,152.297256 149.506882,151.000000 
	C99.500153,151.000000 50.250076,151.000000 1.000000,151.000000 
z"/>
<path fill="#14E956" opacity="1.000000" stroke="none" 
	d="
M601.000000,301.000000 
	C601.000000,350.951355 601.000000,400.902710 601.000000,451.000000 
	C501.312500,451.000000 401.624908,451.000000 301.601929,450.693604 
	C350.623657,400.948853 399.980743,351.510468 450.445496,300.962616 
	C399.510712,300.962616 350.242798,300.962616 300.974915,300.962616 
	C300.974915,300.962616 301.000000,301.000000 301.132904,300.705566 
	C302.767212,298.850861 304.243073,297.265076 305.773743,295.734100 
	C352.312103,249.185959 398.856964,202.644287 445.393188,156.094025 
	C446.733704,154.753082 447.991730,153.329681 450.207611,150.962585 
	C399.512756,150.962585 350.243835,150.962585 300.974915,150.962585 
	C300.974915,150.962585 301.000000,151.000000 301.132874,150.705566 
	C302.766083,148.851990 304.240814,147.267242 305.770416,145.737335 
	C352.407867,99.090698 399.053101,52.451847 445.682220,5.796895 
	C447.200928,4.277348 448.564240,2.602467 450.000000,1.000000 
	C500.260345,1.000000 550.520691,1.000000 601.000000,1.000000 
	C601.000000,51.020679 601.000000,101.041679 600.693604,151.664612 
	C551.615540,200.988800 502.842712,249.709930 454.087402,298.448578 
	C453.574738,298.961029 453.291260,299.702728 452.493073,301.000000 
	C502.499786,301.000000 551.749878,301.000000 601.000000,301.000000 
z"/>
<path fill="#47704C" opacity="1.000000" stroke="none" 
	d="
M449.531342,1.000000 
	C448.564240,2.602467 447.200928,4.277348 445.682220,5.796895 
	C399.053101,52.451847 352.407867,99.090698 305.770416,145.737335 
	C304.240814,147.267242 302.766083,148.851990 301.145416,150.724274 
	C251.757202,151.037415 202.489319,151.037415 151.554550,151.037415 
	C202.019287,100.489548 251.376373,51.051159 300.866730,1.306385 
	C350.354218,1.000000 399.708466,1.000000 449.531342,1.000000 
z"/>
<path fill="#47704C" opacity="1.000000" stroke="none" 
	d="
M300.854553,301.275726 
	C350.242798,300.962616 399.510712,300.962616 450.445496,300.962616 
	C399.980743,351.510468 350.623657,400.948853 301.133270,450.693604 
	C251.645767,451.000000 202.291550,451.000000 152.468658,451.000000 
	C153.435776,449.397552 154.799103,447.722687 156.317810,446.203094 
	C202.946884,399.548126 249.592087,352.909302 296.229523,306.262634 
	C297.759125,304.732758 299.233887,303.148010 300.854553,301.275726 
z"/>
<path fill="#47704C" opacity="1.000000" stroke="none" 
	d="
M1.000000,151.468658 
	C50.250076,151.000000 99.500153,151.000000 149.506882,151.000000 
	C148.708755,152.297256 148.425247,153.038956 147.912598,153.551422 
	C99.157242,202.290024 50.384445,251.011185 1.306386,299.866730 
	C1.000000,250.645767 1.000000,201.291550 1.000000,151.468658 
z"/>
<path fill="#47704C" opacity="1.000000" stroke="none" 
	d="
M601.000000,300.531342 
	C551.749878,301.000000 502.499786,301.000000 452.493073,301.000000 
	C453.291260,299.702728 453.574738,298.961029 454.087402,298.448578 
	C502.842712,249.709930 551.615540,200.988800 600.693604,152.133270 
	C601.000000,201.354233 601.000000,250.708450 601.000000,300.531342 
z"/>
<path fill="#47704C" opacity="1.000000" stroke="none" 
	d="
M300.854584,151.275726 
	C350.243835,150.962585 399.512756,150.962585 450.207611,150.962585 
	C447.991730,153.329681 446.733704,154.753082 445.393188,156.094025 
	C398.856964,202.644287 352.312103,249.185959 305.773743,295.734100 
	C304.243073,297.265076 302.767212,298.850861 301.145447,300.724243 
	C251.756165,301.037415 202.487259,301.037415 151.792435,301.037415 
	C154.008331,298.670319 155.266342,297.246887 156.606873,295.905975 
	C203.143112,249.355667 249.687973,202.813995 296.226349,156.265839 
	C297.757019,154.734863 299.232849,153.149094 300.854584,151.275726 
z"/>
</svg>